<svg xmlns="http://www.w3.org/2000/svg" version="1.1" xmlns:xlink="http://www.w3.org/1999/xlink" xmlns:svgjs="http://svgjs.dev/svgjs" width="1500" height="339" viewBox="0 0 1500 339"><g transform="matrix(1,0,0,1,-0.9809250601834947,-1.3512465965516753)"><svg viewBox="0 0 384 87" data-background-color="#f9f9f9" preserveAspectRatio="xMidYMid meet" height="339" width="1500" xmlns="http://www.w3.org/2000/svg" xmlns:xlink="http://www.w3.org/1999/xlink"><g id="tight-bounds" transform="matrix(1,0,0,1,0.2511168154069878,0.3467800999999895)"><svg viewBox="0 0 383.497766369186 86.3064398" height="86.3064398" width="383.497766369186"><g><svg viewBox="0 0 383.497766369186 86.3064398" height="86.3064398" width="383.497766369186"><g><svg viewBox="0 0 383.497766369186 86.3064398" height="86.3064398" width="383.497766369186"><g id="textblocktransform"><svg viewBox="0 0 383.497766369186 86.3064398" height="86.3064398" width="383.497766369186" id="textblock"><g><svg viewBox="0 0 383.497766369186 58.328900000000004" height="58.328900000000004" width="383.497766369186"><g><svg><g></g><g></g></svg></g><g><svg><g><svg></svg></g><g></g></svg></g><g id="text-0"><svg viewBox="0 0 383.497766369186 58.328900000000004" height="58.328900000000004" width="383.497766369186"><g transform="matrix(1,0,0,1,0,11.13945)"><svg width="164.05" viewBox="0.3 -35.55 164.04 36.05" height="36.050000000000004" data-palette-color="#030303"><path d="M13.05-34.05L21.2-10.1 25.35-24.5 22.35-34.05 19.5-34.05 19.5-35 35-35 35-34.05 32.05-34.05 39.5-10.4 45.5-34.05 40.45-34.05 40.45-35 50.45-35 50.45-34.05 47.15-34.05 37.95 0.5 33.5 0.5 26.1-22.1 19.6 0.5 15.25 0.5 2.65-34.05 0.3-34.05 0.3-35 16.55-35 16.55-34.05 13.05-34.05ZM67.15-17.7L67.15-17.7 64.5-17.7 64.5-0.95 67.75-0.95 67.75 0 51.5 0 51.5-0.95 54.75-0.95 54.75-34.05 51.5-34.05 51.5-35 66.6-35Q73.1-35 75.82-34.33 78.55-33.65 79.65-32.7L79.65-32.7Q82.05-30.75 82.05-26.5 82.05-22.25 79.95-20.43 77.85-18.6 73.55-18.25L73.55-18.25 73.55-18.1Q77.6-17.55 79.2-15.7 80.8-13.85 80.8-9.5L80.8-9.5 80.8-6.85Q80.8-4.25 81.07-3.35 81.35-2.45 82.25-2.45 83.15-2.45 83.67-3.28 84.2-4.1 84.65-6.75L84.65-6.75 85.5-6.65Q84.95-2.4 83.57-0.95 82.2 0.5 78.1 0.5 74 0.5 72.27-1.43 70.55-3.35 70.55-8.65L70.55-8.65 70.55-12.3Q70.55-15.1 69.82-16.4 69.1-17.7 67.15-17.7ZM66.15-34.05L64.5-34.05 64.5-18.65 66.1-18.65Q68.95-18.65 70.32-20.4 71.7-22.15 71.7-26.1L71.7-26.1 71.7-27.55Q71.7-31.5 70.37-32.77 69.05-34.05 66.15-34.05L66.15-34.05ZM87.8-34.05L87.8-35 103.05-35 103.05-34.05 100.3-34.05 100.3-0.95 103.05-0.95 103.05 0 87.8 0 87.8-0.95 90.55-0.95 90.55-34.05 87.8-34.05ZM120.54-0.55L120.54-0.55Q123.04-0.55 124.97-1.9 126.89-3.25 126.89-5.98 126.89-8.7 124.82-10.15 122.74-11.6 118.92-12.68 115.09-13.75 113.37-14.55 111.64-15.35 110.09-16.65L110.09-16.65Q106.99-19.25 106.99-24.7L106.99-24.7Q106.99-29.15 110.17-32.35 113.34-35.55 118.84-35.55L118.84-35.55Q121.49-35.55 124.37-34.77 127.24-34 127.94-34 128.64-34 129.19-35L129.19-35 129.74-35 130.09-24.9 129.29-24.9Q126.89-29.25 124.27-31.88 121.64-34.5 118.57-34.5 115.49-34.5 113.79-33.08 112.09-31.65 112.09-29.28 112.09-26.9 114.12-25.63 116.14-24.35 119.09-23.55 122.04-22.75 122.97-22.45 123.89-22.15 125.27-21.63 126.64-21.1 127.52-20.53 128.39-19.95 129.37-19.07 130.34-18.2 130.89-17.15L130.89-17.15Q132.24-14.75 132.24-11.45L132.24-11.45Q132.24-6.05 128.87-2.78 125.49 0.5 119.99 0.5L119.99 0.5Q117.14 0.5 113.47-0.25 109.79-1 109.39-1L109.39-1Q108.69-1 108.04 0.5L108.04 0.5 107.34 0.5 106.84-11.4 107.69-11.4Q109.89-7.05 113.32-3.8 116.74-0.55 120.54-0.55ZM134.34-35L163.84-35 164.34-22.45 163.39-22.45Q161.19-29.1 159.49-31.53 157.79-33.95 154.59-33.95L154.59-33.95 153.99-33.95 153.99-1.05 158.24-1.05 158.24 0 139.99 0 139.99-1.05 144.24-1.05 144.24-33.95 143.59-33.95Q140.39-33.95 138.64-31.43 136.89-28.9 134.79-22.45L134.79-22.45 133.84-22.45 134.34-35Z" opacity="1" transform="matrix(1,0,0,1,0,0)" fill="#030303" class="undefined-tk-0"></path></svg></g><g><svg xmlns="http://www.w3.org/2000/svg" xmlns:xlink="http://www.w3.org/1999/xlink" version="1.1" x="177.8211" y="0" viewBox="15.553 14.398562547081657 53.88837556557813 77.60043745291834" enable-background="new 0 0 100 100" xml:space="preserve" height="58.328900000000004" width="40.505566369186" class="icon-dxe-0" data-fill-palette-color="accent" id="dxe-0"><g fill="#030303" data-fill-palette-color="accent"><path d="M62.18 88.338C60.846 88.964 59.282 89.647 57.914 90.104 59.562 89.885 61.034 89.127 62.18 88.338" fill="#030303" data-fill-palette-color="accent"></path><path d="M39.512 67.998L39.624 67.984 39.736 68.223A23 23 0 0 0 41.869 67.444C41.086 67.682 40.3 67.863 39.512 67.998" fill="#030303" data-fill-palette-color="accent"></path><path d="M48.485 63.909C48.338 64.029 48.19 64.15 48.041 64.265 48.052 64.258 48.06 64.255 48.06 64.255S48.217 64.135 48.485 63.909" fill="#030303" data-fill-palette-color="accent"></path><path d="M30.13 23.734L30.108 23.586C30.116 23.636 30.121 23.687 30.129 23.737z" fill="#030303" data-fill-palette-color="accent"></path><path d="M60.408 82.352C59.639 81.65 58.566 80.44 57.512 78.465L57.513 78.47S58.503 80.681 60.408 82.352" fill="#030303" data-fill-palette-color="accent"></path><path d="M22.687 25.526S21.884 27.039 22.333 28.813C22.369 28.8 22.391 28.794 22.391 28.794A9.8 9.8 0 0 0 23.316 31.719 19.2 19.2 0 0 1 29.033 28.505C29.608 28.304 30.185 28.135 30.762 27.988 26.783 28.509 23.358 31.527 23.358 31.527 21.77 28.496 22.687 25.526 22.687 25.526" fill="#030303" data-fill-palette-color="accent"></path><path d="M43.225 73.279C41.857 71.621 40.296 69.166 39.843 68.44 40.811 70.396 42.226 72.16 43.225 73.279" fill="#030303" data-fill-palette-color="accent"></path><path d="M22.387 20.223C22.377 20.513 22.39 20.884 22.493 21.108A4 4 0 0 1 22.398 20.216z" fill="#030303" data-fill-palette-color="accent"></path><path d="M50.598 84.512C50.233 83.945 49.883 83.312 49.582 82.607A9.4 9.4 0 0 0 50.598 84.512" fill="#030303" data-fill-palette-color="accent"></path><path d="M55.159 89.437A17 17 0 0 1 53.859 87.932C54.149 88.445 54.663 88.984 55.159 89.437" fill="#030303" data-fill-palette-color="accent"></path><path d="M38.145 20.788C38.872 21.002 40.058 22.76 40.058 22.76 41.722 25.015 42.982 26.48 43.878 27.418 37.433 15.192 36.314 16.926 36.314 16.926 35.613 18.154 36.227 20.157 36.493 20.898 37.688 20.635 38.145 20.788 38.145 20.788" fill="#030303" data-fill-palette-color="accent"></path><path d="M53.616 57.424C54.574 55.571 55.344 53.379 55.584 50.892 55.584 50.892 55.605 50.753 55.629 50.494A20.6 20.6 0 0 1 53.616 57.424" fill="#030303" data-fill-palette-color="accent"></path><path d="M30.148 16.324L30.153 16.304 30.14 16.324C30.143 16.324 30.146 16.322 30.148 16.324" fill="#030303" data-fill-palette-color="accent"></path><path d="M31.446 27.83C30.846 26.757 30.372 24.831 30.201 24.064L30.19 24.069C30.496 25.741 31.196 27.48 31.352 27.851 31.385 27.846 31.413 27.838 31.446 27.83" fill="#030303" data-fill-palette-color="accent"></path><path d="M30.142 23.8L30.132 23.75C30.136 23.779 30.143 23.81 30.149 23.84z" fill="#030303" data-fill-palette-color="accent"></path><path d="M56.631 76.612C56.58 76.488 56.527 76.363 56.476 76.235 56.476 76.235 53.525 73.69 51 68 51.192 68.788 52.285 70.59 52.285 70.59 52.532 72.176 56.619 76.6 56.631 76.612" fill="#030303" data-fill-palette-color="accent"></path><path d="M48.06 64.256C48.306 65.279 48.741 66.042 49.204 66.607 48.812 66.061 48.408 65.305 48.06 64.256" fill="#030303" data-fill-palette-color="accent"></path><path d="M24.502 18.652A48 48 0 0 1 28.594 16.872C27.6 17.098 26.173 17.591 24.502 18.652" fill="#030303" data-fill-palette-color="accent"></path><path d="M29.782 20.181A17 17 0 0 1 29.881 17.624C29.613 18.357 29.66 19.346 29.782 20.181" fill="#030303" data-fill-palette-color="accent"></path><path d="M30.045 16.682L29.984 16.683A2.6 2.6 0 0 0 29.923 17.315C29.967 17.05 30.008 16.841 30.045 16.682" fill="#030303" data-fill-palette-color="accent"></path><path d="M30.153 16.305L30.094 16.325H30.14z" fill="#030303" data-fill-palette-color="accent"></path><path d="M65.684 66.74L63.251 67.6 58.716 69.703C57.265 67.058 56.326 65.177 56.326 65.177 56.863 65.243 57.555 64.06 57.555 64.06 56.216 59.061 55.584 50.892 55.584 50.892 55.344 53.379 54.574 55.572 53.616 57.424A20.6 20.6 0 0 0 55.629 50.493C55.606 50.753 55.584 50.891 55.584 50.891L56.275 50.704 56.847 51.208C59.393 51.846 59.125 50.401 59.125 50.401 60.334 51.064 60.385 48.546 60.385 48.546 60.804 46.475 59.003 46.279 59.003 46.279 59.216 45.242 57.589 45.175 57.589 45.175 57.878 44.367 58.65 42.558 58.65 42.558 58.609 41.353 57.688 41.103 57.688 41.103 58.534 40.417 58.12 39.97 58.12 39.97L58.287 39.352C59.003 37.751 56.714 34.907 56.714 34.907 56.087 34.04 55.733 34.486 55.733 34.486 55.259 33.882 54.513 33.762 54.513 33.762 54.843 31.787 51.649 31.824 51.649 31.824 51.469 31.806 51.195 31.775 50.868 31.735 51.954 30.131 51.266 29.653 51.266 29.653L51.46 28.749C51.087 27.151 48.694 26.549 48.694 26.549L48.172 27.434C47.651 26.679 47.051 27.167 47.051 27.167 46.442 27.655 46.257 28.031 46.239 28.288 44.138 24.739 38.89 16.087 36.979 15.001 36.979 15.001 36.123 12.995 30.154 16.304L30.149 16.324C30.146 16.322 30.143 16.324 30.141 16.324H30.095C26.612 16.356 23.161 19.161 22.403 19.817L18.342 21.934C17.298 22.859 17.746 24.368 17.746 24.368 16.429 25.759 17.633 29.507 17.986 30.502 16.819 31.074 15.866 31.707 15.839 32.267 15.764 33.737 15.553 34.717 15.553 34.717L16.31 43.783A20.97 20.97 0 0 0 17.208 54.438C19.235 60.168 23.463 64.463 28.54 66.65A16 16 0 0 1 25.261 64.868S30.877 71.525 35.322 74.913C35.322 74.913 36.526 75.172 37.602 74.106 37.602 74.106 40.327 79.639 43.253 82.109 43.253 82.109 46.33 87.431 48.849 88.507 48.849 88.507 50.852 91.512 52.563 91.999 52.563 91.999 55.828 91.082 56.481 90.507 56.481 90.507 60.062 91.571 65.454 86.758 65.454 86.758 65.454 86.755 65.45 86.755 74.292 84.42 65.684 66.74 65.684 66.74M36.313 16.926S37.432 15.193 43.877 27.418C42.981 26.48 41.721 25.015 40.057 22.76 40.057 22.76 38.87 21.002 38.144 20.788 38.144 20.788 37.688 20.635 36.492 20.897 36.227 20.157 35.612 18.153 36.313 16.926M22.387 20.223L22.399 20.216A19 19 0 0 1 24.503 18.653C26.174 17.591 27.601 17.098 28.595 16.873A7 7 0 0 1 29.986 16.684L30.047 16.683A10 10 0 0 0 29.926 17.316C29.931 17.424 29.936 17.495 29.936 17.495L29.883 17.626C29.808 18.244 29.752 19.086 29.784 20.183 29.918 21.098 30.139 21.825 30.139 21.825 30.013 22.32 30.023 22.938 30.109 23.589 30.117 23.639 30.125 23.687 30.131 23.737L30.13 23.74 30.133 23.753 30.143 23.803 30.15 23.843C30.162 23.92 30.177 23.997 30.192 24.072L30.203 24.067C30.374 24.834 30.849 26.759 31.448 27.833 31.415 27.841 31.386 27.849 31.354 27.854L31.387 27.928A10 10 0 0 0 30.762 27.991 20 20 0 0 0 29.033 28.508 19.2 19.2 0 0 0 23.316 31.722 9.9 9.9 0 0 1 22.391 28.797L22.333 28.816C21.885 27.042 22.687 25.529 22.687 25.529 21.075 23.024 22.494 21.11 22.494 21.11 22.39 20.884 22.377 20.513 22.387 20.223M19.73 52.817C16.851 44.677 21.139 35.739 29.305 32.851 37.475 29.962 46.429 34.218 49.307 42.358S47.899 59.436 39.73 62.325C31.564 65.214 22.608 60.959 19.73 52.817M62.18 88.338C61.034 89.127 59.562 89.885 57.914 90.104A7 7 0 0 1 55.918 90.083 16 16 0 0 1 55.159 89.437C54.663 88.985 54.149 88.446 53.859 87.932 53.859 87.932 51.979 86.541 50.597 84.512A9.5 9.5 0 0 1 49.581 82.607S46.41 80.164 44.418 74.531C44.418 74.531 43.922 74.062 43.224 73.28 42.225 72.161 40.81 70.397 39.842 68.441L39.736 68.224 39.624 67.985 39.512 67.999A19 19 0 0 0 41.869 67.445C44.823 66.208 47.777 64.425 48.041 64.266 48.19 64.151 48.338 64.03 48.485 63.91 48.216 64.136 48.059 64.257 48.059 64.257 48.408 65.306 48.811 66.062 49.203 66.608 50.057 67.646 51 68 51 68 53.524 73.69 56.476 76.235 56.476 76.235L56.631 76.612H56.632L56.634 76.617 57.512 78.465C58.567 80.44 59.64 81.65 60.408 82.352 60.547 82.474 60.679 82.6 60.828 82.715 61.041 82.878 61.264 83.034 61.497 83.181 61.497 83.181 62.075 84.091 62.327 84.459 62.355 84.494 62.377 84.526 62.395 84.552L62.402 84.563C62.464 84.651 63.272 85.778 64.411 86.44A14.7 14.7 0 0 1 62.18 88.338" fill="#030303" data-fill-palette-color="accent"></path><path d="M30.19 24.069A6 6 0 0 1 30.148 23.84C30.16 23.917 30.171 23.994 30.185 24.072z" fill="#030303" data-fill-palette-color="accent"></path><path d="M62.396 84.552C62.377 84.527 62.356 84.494 62.328 84.459 62.353 84.491 62.378 84.529 62.403 84.563z" fill="#030303" data-fill-palette-color="accent"></path><polygon points="56.632,76.612 56.631,76.612 56.634,76.617  " fill="#030303" data-fill-palette-color="accent"></polygon><path d="M26.609 45.698L26.581 45.691V45.709A5 5 0 0 0 26.311 45.838L31.776 46.859C30.571 45.52 28.654 44.958 26.875 45.588A4 4 0 0 0 26.609 45.698" fill="#030303" data-fill-palette-color="accent"></path><path d="M33.659 50.231L34.818 48.819 37.55 49.457 37.583 48.559 37.706 48.424 37.591 48.363 37.596 48.212 37.321 48.15 37.132 48.971 34.461 48.462 33.573 49.544 32.571 49.006 33.094 48.202 27.978 47.226 30.813 47.886C31.07 48.173 31.277 48.511 31.412 48.896 31.983 50.511 31.105 52.297 29.45 52.882 27.796 53.467 25.99 52.631 25.419 51.016 24.862 49.444 25.679 47.72 27.243 47.084L25.56 46.763 25.701 46.212C24.126 47.377 23.428 49.499 24.126 51.473 24.98 53.887 27.595 55.162 29.964 54.324 31.953 53.621 33.134 51.655 32.961 49.616z" fill="#030303" data-fill-palette-color="accent"></path><path d="M33.287 47.144L33.762 47.232 42.804 36.878 43.485 37.445 35.242 47.509 36.353 47.718 35.914 47.488 37.083 46.063C38.254 47.661 40.349 48.384 42.283 47.701 44.652 46.864 45.885 44.226 45.03 41.813A4.66 4.66 0 0 0 42.724 39.194L44.435 37.109 43.235 36 40.807 38.712A4.4 4.4 0 0 0 39.192 38.964C37.145 39.688 35.954 41.747 36.211 43.848L33.897 46.437 22.565 40.53 22.298 41.223 33.435 46.966zM43.734 42.271C44.306 43.887 43.428 45.673 41.771 46.258 40.317 46.772 38.747 46.19 38 44.944L41.757 40.372A3.07 3.07 0 0 1 43.734 42.271M38.943 40.794L37.936 41.922C38.173 41.479 38.516 41.089 38.943 40.794" fill="#030303" data-fill-palette-color="accent"></path><path d="M42.376 52.582C41.523 50.169 38.908 48.893 36.538 49.732 34.167 50.57 32.935 53.205 33.79 55.618 34.643 58.032 37.256 59.307 39.628 58.469S43.23 54.995 42.376 52.582M39.106 56.719C37.451 57.304 35.645 56.467 35.073 54.852 34.504 53.236 35.382 51.452 37.037 50.867 38.693 50.281 40.498 51.117 41.068 52.732 41.64 54.348 40.763 56.133 39.106 56.719" fill="#030303" data-fill-palette-color="accent"></path><path d="M37.937 41.922L38.944 40.794A3.2 3.2 0 0 0 37.937 41.922" fill="#030303" data-fill-palette-color="accent"></path></g></svg></g><g transform="matrix(1,0,0,1,232.097766369186,11.13945)"><svg width="151.40000000000003" viewBox="0.75 -35.55 151.39 36.05" height="36.050000000000004" data-palette-color="#030303"><path d="M0.75-34.05L0.75-35 15.45-35Q23-35 26.7-32.83 30.4-30.65 30.4-25.05L30.4-25.05Q30.4-18.85 25.9-16.5L25.9-16.5Q21.7-14.35 14.15-14.35L14.15-14.35 13.75-14.35 13.75-0.95 20-0.95 20 0 0.75 0 0.75-0.95 4-0.95 4-34.05 0.75-34.05ZM15.1-34.05L13.75-34.05 13.75-15.3 14.8-15.3Q17.8-15.3 18.95-17.35 20.1-19.4 20.1-24L20.1-24 20.1-26.4Q20.1-30.65 19.03-32.35 17.95-34.05 15.1-34.05L15.1-34.05ZM56.25-15.45L56.25-15.45 56.25-19.15Q56.25-28.3 55.35-30.7L55.35-30.7Q54.35-33.45 52.5-34.1L52.5-34.1Q51.45-34.5 49.95-34.5 48.45-34.5 47.37-34.1 46.3-33.7 45.6-32.7 44.9-31.7 44.47-30.6 44.05-29.5 43.8-27.5L43.8-27.5Q43.5-24.6 43.5-18.95L43.5-18.95 43.5-15.35Q43.5-9.25 43.97-6.68 44.45-4.1 45.15-3L45.15-3Q46.7-0.55 49.95-0.55L49.95-0.55Q53.9-0.55 55.07-3.88 56.25-7.2 56.25-15.45ZM49.85 0.5Q41.5 0.5 37.37-4.03 33.25-8.55 33.25-17.13 33.25-25.7 37.67-30.63 42.1-35.55 50.2-35.55 58.3-35.55 62.42-30.88 66.55-26.2 66.55-17.6 66.55-9 62.37-4.25 58.2 0.5 49.85 0.5ZM69.84-34.05L69.84-35 85.09-35 85.09-34.05 82.34-34.05 82.34-0.95 85.09-0.95 85.09 0 69.84 0 69.84-0.95 72.59-0.95 72.59-34.05 69.84-34.05ZM118.59-34.05L115.84-34.05 115.84 0 108.84 0 91.69-32.35 91.69-0.95 94.44-0.95 94.44 0 87.59 0 87.59-0.95 90.34-0.95 90.34-34.05 87.59-34.05 87.59-35 101.39-35 114.49-9.9 114.49-34.05 111.74-34.05 111.74-35 118.59-35 118.59-34.05ZM122.14-35L151.64-35 152.14-22.45 151.19-22.45Q148.99-29.1 147.29-31.53 145.59-33.95 142.39-33.95L142.39-33.95 141.79-33.95 141.79-1.05 146.04-1.05 146.04 0 127.79 0 127.79-1.05 132.04-1.05 132.04-33.95 131.39-33.95Q128.19-33.95 126.44-31.43 124.69-28.9 122.59-22.45L122.59-22.45 121.64-22.45 122.14-35Z" opacity="1" transform="matrix(1,0,0,1,0,0)" fill="#030303" class="undefined-tk-1"></path></svg></g></svg></g></svg></g><g transform="matrix(1,0,0,1,121.44846021162003,66.83943980000001)"><svg viewBox="0 0 140.60084594594596 19.467000000000002" height="19.467000000000002" width="140.60084594594596"><g transform="matrix(1,0,0,1,0,0)"><svg width="140.60084594594596" viewBox="3.98 -41.19 391.41999999999996 54.199999999999996" height="19.467000000000002" data-palette-color="#030303"><path d="M36.35-9.55L36.35-9.55Q36.35-8.06 35.86-6.76 35.38-5.47 34.52-4.41 33.67-3.34 32.53-2.51 31.4-1.68 30.09-1.12 28.78-0.56 27.39-0.28 26 0 24.66 0L24.66 0 3.98 0 3.98-35.16 22.88-35.16Q24.12-35.16 25.49-34.97 26.86-34.79 28.16-34.4 29.47-34.01 30.65-33.37 31.84-32.74 32.73-31.82 33.62-30.91 34.14-29.71 34.67-28.52 34.67-26.98L34.67-26.98Q34.67-25.51 34.08-24.32 33.5-23.12 32.51-22.18 31.52-21.24 30.24-20.52 28.96-19.8 27.54-19.26L27.54-19.26Q29.32-18.77 30.92-17.97 32.52-17.16 33.73-15.99 34.94-14.82 35.64-13.22 36.35-11.62 36.35-9.55ZM24.83-26.12L24.83-26.12Q24.83-29.1 23.25-30.47 21.68-31.84 18.77-31.84L18.77-31.84 13.67-31.84 13.67-20.43 17.94-20.43Q19.26-20.43 20.51-20.76 21.75-21.09 22.72-21.79 23.68-22.49 24.26-23.56 24.83-24.63 24.83-26.12ZM26.54-10.16L26.54-10.16Q26.54-11.6 26.17-12.85 25.81-14.11 25.05-15.03 24.29-15.94 23.16-16.47 22.02-16.99 20.48-16.99L20.48-16.99 13.67-16.99 13.67-3.42 19.63-3.42Q21.12-3.42 22.39-3.91 23.66-4.39 24.58-5.27 25.51-6.15 26.03-7.4 26.54-8.64 26.54-10.16ZM48.07-13.38L48.07-13.38Q49.58-13.04 51.1-12.84 52.61-12.65 54.15-12.65L54.15-12.65Q55.76-12.65 57.14-12.95 58.52-13.26 59.53-13.98 60.54-14.7 61.13-15.89 61.72-17.09 61.72-18.87L61.72-18.87Q61.72-20.31 61.33-21.51 60.94-22.71 60.17-23.56 59.4-24.41 58.27-24.89 57.15-25.37 55.66-25.37L55.66-25.37Q54.27-25.37 53.16-24.85 52.05-24.34 51.21-23.47 50.36-22.61 49.77-21.46 49.17-20.31 48.78-19.07 48.39-17.82 48.22-16.55 48.04-15.28 48.04-14.16L48.04-14.16Q48.04-13.96 48.04-13.77 48.04-13.57 48.07-13.38ZM68.41-18.95L68.41-18.95Q68.41-17.21 67.84-15.86 67.28-14.5 66.32-13.48 65.35-12.45 64.08-11.74 62.81-11.04 61.37-10.58 59.93-10.13 58.41-9.94 56.88-9.74 55.44-9.74L55.44-9.74Q53.61-9.74 51.83-10 50.05-10.25 48.31-10.82L48.31-10.82Q48.58-9.2 49.17-7.75 49.75-6.3 50.73-5.21 51.71-4.13 53.13-3.49 54.56-2.86 56.52-2.86L56.52-2.86Q57.81-2.86 58.98-3.25 60.15-3.64 61.13-4.35 62.11-5.05 62.85-6.03 63.6-7.01 64.06-8.2L64.06-8.2 67.62-6.88Q66.82-4.96 65.41-3.55 64.01-2.15 62.24-1.23 60.47-0.32 58.48 0.12 56.49 0.56 54.54 0.56L54.54 0.56Q51.32 0.56 48.58-0.52 45.85-1.61 43.87-3.56 41.89-5.52 40.77-8.23 39.65-10.94 39.65-14.16L39.65-14.16Q39.65-17.38 40.77-20.09 41.89-22.8 43.87-24.76 45.85-26.71 48.58-27.8 51.32-28.88 54.54-28.88L54.54-28.88Q56.1-28.88 57.74-28.66 59.37-28.44 60.91-27.97 62.45-27.49 63.82-26.73 65.18-25.98 66.2-24.87 67.21-23.75 67.81-22.29 68.41-20.83 68.41-18.95ZM91.45-35.16L98.55-35.16Q97.89-33.18 97.4-31.07 96.92-28.96 96.6-26.84 96.28-24.73 96.12-22.68 95.96-20.63 95.96-18.8L95.96-18.8Q95.96-17.46 95.98-15.78 95.99-14.11 96.17-12.38 96.35-10.64 96.77-9 97.18-7.35 98-6.05 98.82-4.76 100.1-3.98 101.38-3.2 103.29-3.2L103.29-3.2Q104.97-3.2 106.18-3.77 107.39-4.35 108.23-5.32 109.07-6.3 109.58-7.57 110.08-8.84 110.36-10.23 110.64-11.62 110.72-13.05 110.81-14.48 110.81-15.77L110.81-15.77 110.81-35.16 120.5-35.16 120.5-17.29Q120.5-13.45 119.28-10.16 118.06-6.86 115.84-4.43 113.62-2 110.47-0.62 107.32 0.76 103.48 0.76L103.48 0.76Q100.85 0.76 98.58 0.01 96.31-0.73 94.41-2.04 92.52-3.34 91.04-5.14 89.57-6.93 88.58-9.06 87.59-11.18 87.08-13.54 86.56-15.89 86.61-18.31L86.61-18.31 86.61-18.8Q86.64-20.75 87-22.84 87.37-24.93 87.99-27.03 88.62-29.13 89.49-31.19 90.37-33.25 91.45-35.16L91.45-35.16ZM155.65-16.16L155.65-16.16Q155.65-13.31 154.96-10.21 154.26-7.1 153.02-4.13 151.77-1.15 150.04 1.48 148.31 4.1 146.23 6.01L146.23 6.01 143.13 4.32Q143.79 3.1 144.37 1.59 144.96 0.07 145.44-1.62 145.91-3.32 146.29-5.13 146.67-6.93 146.93-8.7 147.18-10.47 147.32-12.15 147.45-13.82 147.45-15.26L147.45-15.26Q147.45-16.21 147.38-17.3 147.3-18.38 147.07-19.47 146.84-20.56 146.45-21.56 146.06-22.56 145.41-23.32 144.77-24.07 143.85-24.54 142.93-25 141.69-25L141.69-25Q140.47-25 139.52-24.45 138.56-23.9 137.83-23.01 137.1-22.12 136.57-20.97 136.05-19.82 135.72-18.62 135.39-17.41 135.24-16.24 135.1-15.06 135.1-14.14L135.1-14.14 135.1 0 126.82 0 126.82-28.2 129.99-28.2 133.78-21.63Q134.46-23.27 135.49-24.61 136.51-25.95 137.81-26.9 139.1-27.86 140.68-28.37 142.25-28.88 144.08-28.88L144.08-28.88Q147.01-28.88 149.18-27.93 151.36-26.98 152.8-25.28 154.24-23.58 154.95-21.25 155.65-18.92 155.65-16.16ZM185.36-9.01L185.36-9.01Q185.36-7.15 184.83-5.71 184.29-4.27 183.36-3.21 182.43-2.15 181.16-1.43 179.89-0.71 178.44-0.27 176.99 0.17 175.4 0.37 173.82 0.56 172.25 0.56L172.25 0.56Q170.15 0.56 168.54 0.29 166.93 0.02 165.47-0.57 164-1.17 162.55-2.12 161.1-3.08 159.31-4.44L159.31-4.44 164.12-8.37Q164.78-7.13 165.87-6.12 166.96-5.1 168.13-4.37 169.3-3.64 170.4-3.25 171.5-2.86 172.18-2.86L172.18-2.86Q172.74-2.86 173.45-2.89 174.16-2.93 174.89-3.04 175.62-3.15 176.33-3.37 177.04-3.59 177.59-3.97 178.14-4.35 178.47-4.92 178.8-5.49 178.8-6.3L178.8-6.3Q178.8-7.13 178.37-7.75 177.94-8.37 177.26-8.84 176.57-9.3 175.7-9.62 174.82-9.94 173.93-10.18 173.03-10.42 172.2-10.61 171.37-10.79 170.76-10.96L170.76-10.96Q169.64-11.28 168.4-11.61 167.15-11.94 165.93-12.37 164.71-12.79 163.6-13.38 162.49-13.96 161.65-14.78 160.8-15.6 160.3-16.71 159.8-17.82 159.8-19.31L159.8-19.31Q159.8-22.05 160.89-23.89 161.97-25.73 163.76-26.84 165.54-27.95 167.81-28.42 170.08-28.88 172.42-28.88L172.42-28.88Q174.04-28.88 175.82-28.55 177.6-28.22 179.28-27.58 180.97-26.93 182.43-26 183.9-25.07 184.88-23.88L184.88-23.88 180.07-19.92Q179.53-21.39 178.66-22.44 177.8-23.49 176.78-24.16 175.77-24.83 174.71-25.15 173.64-25.46 172.74-25.46L172.74-25.46Q171.86-25.46 170.76-25.39 169.67-25.32 168.7-24.98 167.74-24.63 167.07-23.94 166.39-23.24 166.39-22.02L166.39-22.02Q166.39-21.14 166.8-20.52 167.2-19.9 167.86-19.45 168.52-18.99 169.36-18.69 170.2-18.38 171.08-18.15 171.96-17.92 172.79-17.75 173.62-17.58 174.28-17.38L174.28-17.38Q175.4-17.07 176.66-16.74 177.92-16.41 179.14-15.98 180.36-15.55 181.49-14.98 182.63-14.4 183.48-13.57 184.34-12.74 184.85-11.63 185.36-10.52 185.36-9.01ZM201.18-24.93L201.18 0 192.9 0 192.9-24.93 187.78-24.93 187.78-28.2 192.9-28.2 192.9-38.57 201.18-38.57 201.18-28.2 209.73-28.2 209.73-24.93 201.18-24.93ZM242.1-14.16L242.1-14.16Q242.1-11.96 241.51-10.03 240.92-8.11 239.89-6.47 238.85-4.83 237.38-3.53 235.92-2.22 234.17-1.32 232.43-0.42 230.44 0.07 228.45 0.56 226.35 0.56L226.35 0.56Q224.25 0.56 222.27 0.07 220.3-0.42 218.55-1.32 216.8-2.22 215.34-3.53 213.87-4.83 212.84-6.47 211.8-8.11 211.21-10.05 210.63-11.99 210.63-14.16L210.63-14.16Q210.63-16.33 211.21-18.27 211.8-20.21 212.84-21.85 213.87-23.49 215.34-24.79 216.8-26.1 218.55-27 220.3-27.91 222.27-28.39 224.25-28.88 226.35-28.88L226.35-28.88Q228.45-28.88 230.44-28.39 232.43-27.91 234.17-27 235.92-26.1 237.38-24.79 238.85-23.49 239.89-21.85 240.92-20.21 241.51-18.27 242.1-16.33 242.1-14.16ZM233.7-14.16L233.7-14.16Q233.7-15.33 233.56-16.64 233.43-17.94 233.11-19.2 232.8-20.46 232.25-21.62 231.7-22.78 230.89-23.65 230.09-24.51 228.96-25.04 227.84-25.56 226.35-25.56L226.35-25.56Q224.93-25.56 223.84-25.02 222.74-24.49 221.92-23.6 221.1-22.71 220.55-21.53 220-20.36 219.66-19.1 219.32-17.85 219.17-16.56 219.03-15.28 219.03-14.16L219.03-14.16Q219.03-13.04 219.17-11.76 219.32-10.47 219.66-9.2 220-7.93 220.55-6.77 221.1-5.62 221.92-4.72 222.74-3.83 223.84-3.3 224.93-2.76 226.35-2.76L226.35-2.76Q227.81-2.76 228.94-3.28 230.06-3.81 230.88-4.69 231.7-5.57 232.23-6.71 232.77-7.86 233.1-9.13 233.43-10.4 233.56-11.69 233.7-12.99 233.7-14.16ZM277.27-14.16L277.27-14.16Q277.27-11.08 276.35-8.4 275.42-5.71 273.66-3.72 271.9-1.73 269.36-0.59 266.83 0.56 263.6 0.56L263.6 0.56Q261.14 0.56 259.07-0.4 257.01-1.37 255.55-3.37L255.55-3.37 255.55 13.01 247.29 13.01 247.29-28.2 250.47-28.2 254.13-22.07Q254.67-23.61 255.61-24.87 256.55-26.12 257.78-27.01 259.01-27.91 260.49-28.39 261.97-28.88 263.6-28.88L263.6-28.88Q266.83-28.88 269.36-27.73 271.9-26.59 273.66-24.6 275.42-22.61 276.35-19.92 277.27-17.24 277.27-14.16ZM268.9-14.16L268.9-14.16Q268.9-15.23 268.79-16.44 268.68-17.65 268.41-18.85 268.14-20.04 267.67-21.14 267.19-22.24 266.46-23.08 265.73-23.93 264.69-24.43 263.65-24.93 262.28-24.93L262.28-24.93Q260.87-24.93 259.83-24.44 258.79-23.95 258.05-23.11 257.3-22.27 256.83-21.18 256.35-20.09 256.08-18.9 255.81-17.7 255.71-16.48 255.6-15.26 255.6-14.16L255.6-14.16Q255.6-13.18 255.74-12 255.89-10.82 256.21-9.62 256.52-8.42 257.04-7.3 257.55-6.18 258.29-5.3 259.04-4.42 260.03-3.89 261.02-3.37 262.28-3.37L262.28-3.37Q263.68-3.37 264.7-3.87 265.73-4.37 266.46-5.21 267.19-6.05 267.67-7.15 268.14-8.25 268.41-9.45 268.68-10.64 268.79-11.87 268.9-13.09 268.9-14.16ZM310.96-28.2L310.96 0 302.71 0 302.71-3.37Q301.25-1.37 299.18-0.4 297.12 0.56 294.66 0.56L294.66 0.56Q291.43 0.56 288.89-0.59 286.35-1.73 284.6-3.72 282.84-5.71 281.91-8.4 280.98-11.08 280.98-14.16L280.98-14.16Q280.98-17.24 281.91-19.92 282.84-22.61 284.6-24.6 286.35-26.59 288.89-27.73 291.43-28.88 294.66-28.88L294.66-28.88Q296.29-28.88 297.77-28.39 299.25-27.91 300.48-27.01 301.71-26.12 302.65-24.87 303.59-23.61 304.13-22.07L304.13-22.07 307.79-28.2 310.96-28.2ZM302.66-14.16L302.66-14.16Q302.66-15.26 302.55-16.48 302.44-17.7 302.17-18.9 301.91-20.09 301.43-21.18 300.95-22.27 300.21-23.11 299.46-23.95 298.42-24.44 297.37-24.93 295.97-24.93L295.97-24.93Q294.58-24.93 293.56-24.43 292.53-23.93 291.8-23.08 291.07-22.24 290.59-21.14 290.11-20.04 289.85-18.85 289.58-17.65 289.47-16.44 289.36-15.23 289.36-14.16L289.36-14.16Q289.36-13.09 289.47-11.87 289.58-10.64 289.85-9.45 290.11-8.25 290.59-7.15 291.07-6.05 291.8-5.21 292.53-4.37 293.56-3.87 294.58-3.37 295.97-3.37L295.97-3.37Q297.24-3.37 298.23-3.89 299.22-4.42 299.97-5.3 300.71-6.18 301.22-7.3 301.74-8.42 302.05-9.62 302.37-10.82 302.52-12 302.66-13.18 302.66-14.16ZM347.83-14.06L347.83-14.06Q347.83-10.99 346.9-8.3 345.97-5.62 344.21-3.63 342.46-1.64 339.92-0.49 337.38 0.66 334.15 0.66L334.15 0.66Q332.52 0.66 331.04 0.17 329.56-0.32 328.33-1.21 327.1-2.1 326.16-3.34 325.22-4.59 324.68-6.13L324.68-6.13 321.02 0 317.85 0 317.85-38.57 326.1-38.57 326.1-24.83Q327.56-26.86 329.63-27.81 331.69-28.76 334.15-28.76L334.15-28.76Q337.38-28.76 339.92-27.61 342.46-26.46 344.21-24.49 345.97-22.51 346.9-19.82 347.83-17.14 347.83-14.06ZM339.45-14.06L339.45-14.06Q339.45-15.14 339.34-16.35 339.23-17.55 338.96-18.75 338.7-19.95 338.22-21.04 337.74-22.14 337.01-22.99 336.28-23.83 335.25-24.33 334.23-24.83 332.84-24.83L332.84-24.83Q331.57-24.83 330.58-24.3 329.59-23.78 328.84-22.9 328.1-22.02 327.59-20.9 327.07-19.78 326.76-18.58 326.44-17.38 326.29-16.21 326.15-15.04 326.15-14.06L326.15-14.06Q326.15-12.96 326.26-11.74 326.37-10.52 326.64-9.31 326.9-8.11 327.38-7.02 327.86-5.93 328.6-5.09 329.35-4.25 330.38-3.76 331.42-3.27 332.84-3.27L332.84-3.27Q334.2-3.27 335.24-3.77 336.28-4.27 337.01-5.11 337.74-5.96 338.22-7.07 338.7-8.18 338.96-9.38 339.23-10.57 339.34-11.78 339.45-12.99 339.45-14.06ZM361.4-32.62L361.4 0 353.15 0 353.15-41.19 356.32-41.19 361.4-32.62ZM375.07-13.38L375.07-13.38Q376.58-13.04 378.1-12.84 379.61-12.65 381.15-12.65L381.15-12.65Q382.76-12.65 384.14-12.95 385.52-13.26 386.53-13.98 387.54-14.7 388.13-15.89 388.72-17.09 388.72-18.87L388.72-18.87Q388.72-20.31 388.32-21.51 387.93-22.71 387.16-23.56 386.4-24.41 385.27-24.89 384.15-25.37 382.66-25.37L382.66-25.37Q381.27-25.37 380.16-24.85 379.05-24.34 378.2-23.47 377.36-22.61 376.76-21.46 376.17-20.31 375.78-19.07 375.39-17.82 375.21-16.55 375.04-15.28 375.04-14.16L375.04-14.16Q375.04-13.96 375.04-13.77 375.04-13.57 375.07-13.38ZM395.4-18.95L395.4-18.95Q395.4-17.21 394.84-15.86 394.28-14.5 393.32-13.48 392.35-12.45 391.08-11.74 389.81-11.04 388.37-10.58 386.93-10.13 385.41-9.94 383.88-9.74 382.44-9.74L382.44-9.74Q380.61-9.74 378.83-10 377.05-10.25 375.31-10.82L375.31-10.82Q375.58-9.2 376.17-7.75 376.75-6.3 377.73-5.21 378.71-4.13 380.13-3.49 381.56-2.86 383.51-2.86L383.51-2.86Q384.81-2.86 385.98-3.25 387.15-3.64 388.13-4.35 389.11-5.05 389.85-6.03 390.6-7.01 391.06-8.2L391.06-8.2 394.62-6.88Q393.82-4.96 392.41-3.55 391.01-2.15 389.24-1.23 387.47-0.32 385.48 0.12 383.49 0.56 381.54 0.56L381.54 0.56Q378.31 0.56 375.58-0.52 372.85-1.61 370.87-3.56 368.89-5.52 367.77-8.23 366.64-10.94 366.64-14.16L366.64-14.16Q366.64-17.38 367.77-20.09 368.89-22.8 370.87-24.76 372.85-26.71 375.58-27.8 378.31-28.88 381.54-28.88L381.54-28.88Q383.1-28.88 384.74-28.66 386.37-28.44 387.91-27.97 389.45-27.49 390.81-26.73 392.18-25.98 393.2-24.87 394.21-23.75 394.81-22.29 395.4-20.83 395.4-18.95Z" opacity="1" transform="matrix(1,0,0,1,0,0)" fill="#030303" class="slogan-text-1" data-fill-palette-color="secondary" id="text-1"></path></svg></g></svg></g></svg></g></svg></g><g></g></svg></g><defs></defs></svg><rect width="383.497766369186" height="86.3064398" fill="none" stroke="none" visibility="hidden"></rect></g></svg></g></svg>