<?xml version="1.0" standalone="no"?>
<!DOCTYPE svg PUBLIC "-//W3C//DTD SVG 20010904//EN"
 "http://www.w3.org/TR/2001/REC-SVG-20010904/DTD/svg10.dtd">
<svg version="1.0" xmlns="http://www.w3.org/2000/svg"
 width="300.000000pt" height="300.000000pt" viewBox="0 0 300.000000 300.000000"
 preserveAspectRatio="xMidYMid meet">
<metadata>
Created by potrace 1.10, written by Peter Selinger 2001-2011
</metadata>
<g transform="translate(0.000000,300.000000) scale(0.100000,-0.100000)"
fill="#000000" stroke="none">
<path d="M182 2978 c-7 -7 -17 -14 -22 -14 -6 -1 -14 -2 -20 -3 -5 0 -14 -10
-20 -22 -11 -19 -10 -20 9 -9 12 6 21 15 21 21 0 6 4 8 9 5 4 -3 16 3 26 14
20 22 17 28 -3 8z"/>
<path d="M2815 2970 c10 -11 26 -20 37 -20 10 0 18 -5 18 -11 0 -6 14 -24 31
-40 17 -16 28 -22 25 -13 -3 9 -6 20 -6 25 0 5 -5 9 -11 9 -7 0 -22 12 -35 26
-13 14 -29 22 -34 19 -6 -3 -10 -2 -10 3 0 6 -8 13 -17 16 -15 6 -15 4 2 -14z"/>
<path d="M899 2195 c-60 -33 -118 -162 -198 -440 -91 -315 -151 -619 -151
-760 1 -145 40 -191 169 -202 61 -5 71 -3 90 16 18 18 21 33 21 100 0 150 39
399 120 766 86 386 95 471 55 515 -21 24 -68 26 -106 5z m82 -52 c10 -26 7
-115 -6 -173 -3 -14 -10 -50 -15 -81 -6 -31 -30 -145 -55 -254 -25 -108 -45
-210 -45 -226 0 -17 -3 -28 -7 -26 -5 3 -9 -11 -10 -31 -2 -21 -7 -66 -13
-102 -24 -144 -29 -189 -36 -293 -7 -123 -14 -133 -92 -124 -59 6 -92 33 -108
87 -17 56 -13 123 12 275 23 133 47 245 69 325 9 30 22 84 30 120 8 36 19 76
24 90 5 14 19 59 31 100 12 41 26 84 30 95 5 11 12 31 16 45 39 144 145 249
175 173z"/>
<path d="M1675 2194 c-80 -17 -200 -67 -282 -116 -73 -44 -145 -121 -141 -151
5 -36 58 -33 200 12 222 71 286 85 383 85 130 0 209 -39 270 -134 49 -77 60
-134 60 -300 -1 -143 -3 -161 -28 -234 -54 -154 -165 -283 -276 -321 -53 -18
-178 -20 -269 -4 l-64 11 7 57 c10 81 48 280 91 471 52 235 49 330 -12 330
-61 0 -106 -64 -187 -266 -67 -165 -136 -420 -137 -500 l0 -31 -96 24 c-53 13
-102 22 -110 19 -8 -3 -14 -17 -14 -32 0 -32 82 -115 158 -159 41 -24 52 -35
52 -56 0 -48 40 -93 95 -107 57 -15 115 -9 130 12 10 12 19 12 75 -1 102 -24
283 -14 385 21 251 86 424 296 475 577 16 89 14 271 -4 359 -23 108 -75 207
-147 279 -141 141 -386 203 -614 155z m259 -24 c37 -6 73 -13 80 -17 6 -4 19
-9 28 -10 28 -4 108 -44 164 -81 138 -90 217 -279 213 -505 -1 -55 -5 -111 -9
-126 -5 -14 -15 -57 -24 -96 -53 -227 -224 -411 -451 -483 -94 -30 -230 -37
-330 -17 -79 15 -86 15 -120 -1 -64 -30 -147 0 -169 62 -15 42 -35 65 -82 97
-23 15 -59 43 -80 62 -33 30 -36 35 -20 41 10 4 33 2 50 -4 18 -7 49 -12 69
-12 49 0 63 24 87 142 11 51 24 109 30 128 31 108 52 177 60 195 96 234 110
262 145 295 20 18 28 21 37 12 15 -15 14 -137 -1 -184 -5 -18 -17 -71 -26
-118 -9 -47 -22 -107 -30 -135 -8 -27 -23 -100 -35 -162 -43 -240 -32 -257
187 -269 124 -8 174 8 276 84 71 53 149 167 184 265 64 183 50 456 -29 572
-51 74 -119 127 -182 142 -85 19 -241 12 -326 -16 -14 -5 -45 -14 -70 -21 -25
-7 -54 -16 -65 -20 -11 -4 -40 -13 -65 -20 -25 -6 -53 -16 -62 -21 -23 -12
-68 -12 -68 0 0 31 225 172 273 171 9 0 17 5 17 10 0 6 12 10 26 10 14 0 35 5
46 11 47 25 169 34 272 19z"/>
<path d="M119 63 c11 -21 23 -27 44 -24 4 0 7 -3 7 -8 0 -5 8 -12 17 -15 15
-6 15 -5 -1 13 -10 11 -22 18 -27 16 -4 -3 -18 5 -30 17 l-21 23 11 -22z"/>
</g>
</svg>
