<?xml version="1.0" standalone="no"?>
<!DOCTYPE svg PUBLIC "-//W3C//DTD SVG 20010904//EN"
 "http://www.w3.org/TR/2001/REC-SVG-20010904/DTD/svg10.dtd">
<svg version="1.0" xmlns="http://www.w3.org/2000/svg"
 width="500.000000pt" height="500.000000pt" viewBox="0 0 500.000000 500.000000"
 preserveAspectRatio="xMidYMid meet">

<g transform="translate(0.000000,500.000000) scale(0.100000,-0.100000)"
fill="#000000" stroke="none">
<path d="M3626 3834 c-148 -32 -274 -114 -382 -247 -90 -112 -153 -246 -216
-457 l-53 -176 -90 0 c-49 0 -156 -10 -237 -24 -81 -13 -150 -22 -153 -19 -2
3 -39 102 -81 220 -42 118 -82 220 -89 227 -14 15 -14 13 -179 -496 -42 -129
-76 -238 -76 -243 0 -14 90 -11 95 4 2 6 32 101 67 211 l64 198 26 -75 27 -76
-40 -3 c-54 -4 -54 -23 0 -25 24 -1 47 -6 51 -10 11 -13 70 -191 70 -213 0
-18 7 -20 85 -20 l84 0 -14 41 c-8 23 -15 77 -15 119 0 90 -18 78 155 106 96
15 209 12 220 -5 2 -4 -13 -65 -34 -135 l-39 -127 57 3 56 3 34 100 c19 55 36
102 39 105 2 3 23 -16 47 -42 28 -31 49 -67 61 -107 l19 -61 78 0 c74 0 77 1
77 24 0 13 -16 55 -35 94 -39 78 -98 137 -170 172 l-44 21 66 192 c102 297
180 445 296 559 67 66 191 133 264 143 65 9 83 15 83 26 0 13 -95 10 -174 -7z"/>
<path d="M1230 3321 c0 -5 19 -11 43 -15 53 -9 108 -45 135 -88 11 -18 63
-154 115 -303 53 -148 98 -278 102 -287 6 -15 20 -18 76 -18 38 0 69 3 69 6 0
4 -40 136 -90 294 -49 158 -90 301 -90 317 0 41 40 83 80 83 16 0 30 5 30 10
0 6 -85 10 -235 10 -129 0 -235 -4 -235 -9z"/>
<path d="M1480 2548 c0 -7 5 -30 11 -51 11 -41 32 -45 37 -9 2 12 7 22 12 22
5 0 10 -10 12 -22 2 -12 8 -23 15 -25 13 -5 36 59 30 84 -3 12 -7 8 -12 -14
-9 -39 -22 -43 -27 -8 -4 37 -21 35 -34 -5 l-11 -34 -7 32 c-8 32 -26 54 -26
30z"/>
<path d="M1721 2508 c1 -29 3 -45 6 -35 5 21 22 22 29 2 4 -8 16 -15 28 -15
21 0 21 1 -3 19 -16 12 -20 21 -12 25 19 12 12 43 -11 50 -37 10 -38 8 -37
-46z m39 16 c0 -9 -5 -14 -12 -12 -18 6 -21 28 -4 28 9 0 16 -7 16 -16z"/>
<path d="M1907 2553 c-11 -10 -8 -93 3 -93 6 0 10 23 10 50 0 51 -1 55 -13 43z"/>
<path d="M2052 2548 c-19 -19 -14 -38 14 -48 14 -6 22 -14 19 -20 -4 -7 -13
-6 -27 1 -16 9 -19 8 -16 -3 6 -18 49 -23 59 -6 14 21 11 28 -16 40 -33 15
-32 32 2 23 23 -5 25 -4 14 9 -16 19 -33 20 -49 4z"/>
<path d="M2215 2550 c-3 -5 1 -10 9 -10 12 0 16 -10 16 -40 0 -22 5 -40 10
-40 6 0 10 18 10 40 0 29 4 40 15 40 8 0 15 5 15 10 0 6 -15 10 -34 10 -19 0
-38 -4 -41 -10z"/>
<path d="M2537 2554 c-11 -11 -8 -94 3 -94 6 0 10 7 10 15 0 8 11 17 24 21 26
6 38 24 27 42 -8 14 -54 25 -64 16z m46 -29 c1 -5 -6 -11 -15 -13 -11 -2 -18
3 -18 13 0 17 30 18 33 0z"/>
<path d="M2730 2540 c-23 -23 -24 -33 -10 -61 14 -26 55 -24 74 3 9 12 16 26
16 30 0 11 -38 48 -50 48 -5 0 -19 -9 -30 -20z m54 -15 c8 -23 -4 -45 -25 -45
-25 0 -35 26 -19 45 16 19 36 19 44 0z"/>
<path d="M2927 2553 c-11 -10 -8 -93 3 -93 6 0 10 23 10 50 0 51 -1 55 -13 43z"/>
<path d="M3127 2553 c-4 -3 -7 -18 -7 -32 l-1 -26 -17 28 c-25 41 -42 34 -42
-18 0 -25 5 -45 10 -45 6 0 10 15 10 33 l0 32 21 -32 c12 -18 25 -33 30 -33 5
0 9 23 9 50 0 51 -1 55 -13 43z"/>
<path d="M3255 2550 c-3 -5 1 -10 9 -10 12 0 16 -10 16 -40 0 -22 5 -40 10
-40 6 0 10 18 10 40 0 29 4 40 15 40 8 0 15 5 15 10 0 6 -15 10 -34 10 -19 0
-38 -4 -41 -10z"/>
<path d="M1710 2388 c0 -2 33 -97 74 -211 l74 -208 -39 -80 c-64 -133 -148
-240 -235 -300 -55 -38 -158 -71 -208 -67 -61 5 -57 -16 5 -25 62 -9 158 5
221 32 108 46 225 165 294 297 18 35 68 171 110 302 42 130 79 243 81 250 4 8
-9 12 -44 12 l-49 0 -39 -117 -39 -118 -36 115 -36 115 -67 3 c-37 2 -67 2
-67 0z"/>
<path d="M2428 1972 c-3 -379 -5 -420 -21 -445 -24 -37 -59 -58 -107 -64 -22
-3 -40 -10 -40 -14 0 -5 106 -9 235 -9 129 0 235 4 235 9 0 4 -18 11 -40 14
-48 6 -94 37 -109 74 -8 20 -11 130 -9 370 l3 342 75 -211 c41 -115 79 -211
84 -211 5 -1 16 34 23 78 7 44 19 98 27 120 11 34 17 39 37 36 13 -1 74 -4
134 -5 102 -1 114 1 167 27 102 50 194 167 213 270 l7 37 -81 0 c-77 0 -81 -1
-81 -22 0 -33 -42 -119 -79 -160 -44 -50 -120 -81 -203 -82 -36 -1 -69 2 -72
5 -4 3 13 63 38 133 l44 127 -51 -3 -51 -3 -29 -95 -29 -95 -35 98 -35 97
-124 0 -123 0 -3 -418z"/>
</g>
</svg>
